<svg xmlns="http://www.w3.org/2000/svg" viewBox="0 0 800 360" preserveAspectRatio="xMidYMid slice">
  <defs>
    <linearGradient id="bg" x1="0" y1="0" x2="1" y2="1">
      <stop offset="0" stop-color="#050404"/>
      <stop offset=".6" stop-color="#110c06"/>
      <stop offset="1" stop-color="#1d1408"/>
    </linearGradient>
    <radialGradient id="warm" cx="640" cy="300" r="360" gradientUnits="userSpaceOnUse">
      <stop offset="0" stop-color="#c8913a" stop-opacity=".45"/>
      <stop offset=".55" stop-color="#7a5418" stop-opacity=".12"/>
      <stop offset="1" stop-color="#7a5418" stop-opacity="0"/>
    </radialGradient>
    <linearGradient id="gold" x1="0" y1="0" x2="1" y2="1">
      <stop offset="0" stop-color="#8a6424"/>
      <stop offset=".4" stop-color="#f3d38a"/>
      <stop offset=".7" stop-color="#b98a3a"/>
      <stop offset="1" stop-color="#ffe7a8"/>
    </linearGradient>
    <linearGradient id="fadeX" x1="0" y1="0" x2="1" y2="0">
      <stop offset=".3" stop-color="#fff" stop-opacity="0"/>
      <stop offset=".75" stop-color="#fff" stop-opacity="1"/>
    </linearGradient>
    <mask id="fade"><rect width="800" height="360" fill="url(#fadeX)"/></mask>
    <filter id="glow" filterUnits="userSpaceOnUse" x="-100" y="-100" width="1000" height="560"><feGaussianBlur stdDeviation="4"/></filter>
  </defs>
  <rect width="800" height="360" fill="url(#bg)"/>
  <rect width="800" height="360" fill="url(#warm)"/>
  <g mask="url(#fade)" fill="none" stroke="url(#gold)">
    <g stroke-width=".9" opacity=".45"><circle cx="640" cy="392" r="96"/><circle cx="640" cy="392" r="140"/><circle cx="640" cy="392" r="184"/><circle cx="640" cy="392" r="228"/><circle cx="640" cy="392" r="272"/><circle cx="640" cy="392" r="316"/><circle cx="640" cy="392" r="360"/><circle cx="640" cy="392" r="404"/></g>
    <g stroke-width=".7" opacity=".28"><line x1="572.4" y1="373.9" x2="186.0" y2="270.4"/><line x1="579.4" y1="357.0" x2="233.0" y2="157.0"/><line x1="590.5" y1="342.5" x2="307.7" y2="59.7"/><line x1="605.0" y1="331.4" x2="405.0" y2="-15.0"/><line x1="621.9" y1="324.4" x2="518.4" y2="-62.0"/><line x1="640.0" y1="322.0" x2="640.0" y2="-78.0"/><line x1="658.1" y1="324.4" x2="761.6" y2="-62.0"/><line x1="675.0" y1="331.4" x2="875.0" y2="-15.0"/><line x1="689.5" y1="342.5" x2="972.3" y2="59.7"/><line x1="700.6" y1="357.0" x2="1047.0" y2="157.0"/><line x1="707.6" y1="373.9" x2="1094.0" y2="270.4"/></g>
    <circle cx="640" cy="392" r="150" stroke-width="3" opacity=".6" filter="url(#glow)"/>
    <circle cx="640" cy="392" r="150" stroke-width="1.6"/>
  </g>
  <g transform="translate(640 196)" fill="none" stroke="url(#gold)">
    <path d="M0 -44 L40 0 L0 44 L-40 0 Z" stroke-width="5" opacity=".45" filter="url(#glow)"/>
    <path d="M0 -44 L40 0 L0 44 L-40 0 Z" stroke-width="1.8"/>
    <path d="M0 -28 L25 0 L0 28 L-25 0 Z" fill="url(#gold)" stroke="none" opacity=".92"/>
    <path d="M0 -28 L25 0 L0 0 Z" fill="#fff5d6" stroke="none" opacity=".45"/>
  </g>
  <g fill="#f3d38a"><circle cx="482" cy="54" r="0.7" opacity="0.30"/><circle cx="582" cy="132" r="0.7" opacity="0.84"/><circle cx="431" cy="31" r="1.4" opacity="0.30"/><circle cx="373" cy="153" r="1.8" opacity="0.33"/><circle cx="435" cy="226" r="0.7" opacity="0.63"/><circle cx="516" cy="351" r="0.7" opacity="0.61"/><circle cx="393" cy="151" r="1.8" opacity="0.33"/><circle cx="475" cy="294" r="0.9" opacity="0.32"/><circle cx="598" cy="68" r="0.7" opacity="0.61"/><circle cx="360" cy="21" r="0.9" opacity="0.57"/><circle cx="580" cy="280" r="1.4" opacity="0.63"/><circle cx="543" cy="108" r="0.9" opacity="0.70"/><circle cx="445" cy="207" r="1.8" opacity="0.57"/><circle cx="491" cy="162" r="1.8" opacity="0.89"/><circle cx="385" cy="151" r="1.1" opacity="0.35"/><circle cx="560" cy="14" r="0.7" opacity="0.75"/><circle cx="599" cy="315" r="1.1" opacity="0.47"/><circle cx="495" cy="179" r="1.4" opacity="0.29"/><circle cx="374" cy="97" r="0.7" opacity="0.29"/><circle cx="660" cy="233" r="1.4" opacity="0.43"/><circle cx="511" cy="241" r="0.7" opacity="0.86"/><circle cx="497" cy="220" r="1.4" opacity="0.29"/><circle cx="691" cy="47" r="0.9" opacity="0.51"/><circle cx="761" cy="179" r="0.9" opacity="0.54"/><circle cx="588" cy="318" r="1.4" opacity="0.81"/><circle cx="461" cy="150" r="1.1" opacity="0.69"/><circle cx="509" cy="83" r="0.7" opacity="0.36"/><circle cx="439" cy="84" r="1.4" opacity="0.79"/><circle cx="416" cy="101" r="0.9" opacity="0.52"/><circle cx="504" cy="204" r="0.9" opacity="0.70"/><circle cx="572" cy="222" r="0.7" opacity="0.55"/><circle cx="739" cy="343" r="1.8" opacity="0.51"/><circle cx="518" cy="37" r="1.4" opacity="0.29"/><circle cx="362" cy="75" r="0.9" opacity="0.32"/><circle cx="612" cy="37" r="1.8" opacity="0.35"/><circle cx="378" cy="131" r="0.7" opacity="0.30"/><circle cx="428" cy="135" r="1.1" opacity="0.87"/><circle cx="613" cy="171" r="0.7" opacity="0.80"/><circle cx="797" cy="168" r="1.4" opacity="0.45"/><circle cx="398" cy="270" r="1.1" opacity="0.56"/><circle cx="655" cy="186" r="0.9" opacity="0.87"/><circle cx="578" cy="53" r="1.8" opacity="0.84"/><circle cx="686" cy="107" r="0.7" opacity="0.70"/><circle cx="453" cy="132" r="0.9" opacity="0.48"/><circle cx="435" cy="195" r="1.8" opacity="0.46"/><circle cx="435" cy="292" r="0.9" opacity="0.77"/></g>
  <path d="M40 330 H520" stroke="url(#gold)" stroke-width="1" opacity=".35" mask="url(#fade)"/>
</svg>
